<svg id="Layer_1" data-name="Layer 1" xmlns="http://www.w3.org/2000/svg" viewBox="0 0 246.74 218.27">
  <title>Cart</title>
  <path d="M336.09,141a11.34,11.34,0,0,0-11.26-10H145.47L142.4,114.7A11.38,11.38,0,0,0,131,103.55H95.67a5.94,5.94,0,0,0-5.94,5.94v1.84a5.94,5.94,0,0,0,5.94,5.94h32.49l30.11,159.58a27.25,27.25,0,1,0,44.47,4.38h61.07a27.25,27.25,0,1,0,44.53-4.31v-1.06a8.55,8.55,0,0,0-8.54-8.55H171.2l-5-26.61H307.05v0a11.65,11.65,0,0,0,10.3-9.13l19-87.11A6,6,0,0,0,336.09,141ZM179,309.91a15.34,15.34,0,1,1,15.34-15.34A15.34,15.34,0,0,1,179,309.91Zm108.6,0a15.34,15.34,0,1,1,15.34-15.34A15.34,15.34,0,0,1,287.58,309.91Zm16.24-84.19H163.35L148,144.52H321.52Z" transform="translate(-89.73 -103.55)"/>
</svg>
